# AST/ASF file generated using VICON BodyLanguage
# -----------------------------------------------
:version 1.10
:name VICON
:units
  mass 1.0
  length 0.45
  angle deg
:documentation
   .ast/.asf automatically generated from VICON data using
   VICON BodyBuilder and BodyLanguage model FoxedUp or BRILLIANT.MOD
:root
   order TX TY TZ RX RY RZ
   axis XYZ
   position 0 0 0  
   orientation 0 0 0 
:bonedata
  begin
     id 1 
     name lhipjoint
     direction 0.570549 -0.739093 0.358072 
     length 2.41801 
     axis 0 0 0  XYZ
  end
  begin
     id 2 
     name lfemur
     direction 0.34202 -0.939693 0  
     length 7.44434  
     axis 0 0 20  XYZ
    dof rx ry rz
    limits (-160.0 20.0)
           (-70.0 70.0)
           (-60.0 70.0)
  end
  begin
     id 3 
     name ltibia
     direction 0.34202 -0.939693 0   
     length 7.60047   
     axis 0 0 20   XYZ
    dof rx
    limits (-10.0 170.0)
  end
  begin
     id 4 
     name lfoot
     direction 0.0909041 -0.249757 0.964032   
     length 2.03437   
     axis -90 7.62852e-016 20   XYZ
    dof rx rz
    limits (-45.0 90.0)
           (-70.0 20.0)
  end
  begin
     id 5 
     name ltoes
     direction 1.53547e-011 -4.2174e-011 1   
     length 1.02054   
     axis -90 7.62852e-016 20   XYZ
    dof rx
    limits (-90.0 20.0)
  end
  begin
     id 6 
     name rhipjoint
     direction -0.558096 -0.746754 0.361784   
     length 2.3932  
     axis 0 0 0  XYZ 
  end
  begin
     id 7 
     name rfemur
     direction -0.34202 -0.939693 0   
     length 7.3886   
     axis 0 0 -20   XYZ
    dof rx ry rz
    limits (-160.0 20.0)
           (-70.0 70.0)
           (-70.0 60.0)
  end
  begin
     id 8 
     name rtibia
     direction -0.34202 -0.939693 0   
     length 7.4839   
     axis 0 0 -20   XYZ
    dof rx
    limits (-10.0 170.0)
 end
 begin
     id 9 
     name rfoot
     direction -0.114619 -0.314914 0.942174   
     length 2.25127  
     axis -90 -7.62852e-016 -20   XYZ
    dof rx rz
    limits (-45.0 90.0)
           (-20.0 70.0)
  end
  begin
     id 10 
     name rtoes
     direction -1.53518e-011 -4.21881e-011 1   
     length 1.11821   
     axis -90 -7.62852e-016 -20   XYZ
    dof rx
    limits (-90.0 20.0)
  end
  begin
     id 11 
     name lowerback
     direction -0.00902269 0.996426 -0.0839821   
     length 2.25052   
     axis 0 0 0   XYZ
    dof rx ry rz
    limits (-20.0 45.0)
           (-30.0 30.0)
           (-30.0 30.0)
  end
  begin
     id 12 
     name upperback
     direction 0.0370973 0.999169 -0.0168941   
     length 2.24876   
     axis 0 0 0   XYZ
    dof rx ry rz
    limits (-20.0 45.0)
           (-30.0 30.0)
           (-30.0 30.0)
  end
  begin
     id 13 
     name thorax
     direction 0.0402726 0.998931 0.0227027   
     length 2.26408   
     axis 0 0 0   XYZ
    dof rx ry rz
    limits (-20.0 45.0)
           (-30.0 30.0)
           (-30.0 30.0)
  end
  begin
     id 14 
     name lowerneck
     direction -0.0733697 0.98508 0.155675   
     length 1.58204   
     axis 0 0 0   XYZ
    dof rx ry rz
    limits (-20.0 45.0)
           (-30.0 30.0)
           (-30.0 30.0)
  end
  begin
     id 15 
     name upperneck
     direction 0.0426554 0.993501 -0.105526   
     length 1.61222   
     axis 0 0 0   XYZ
    dof rx ry rz
    limits (-20.0 45.0)
           (-30.0 30.0)
           (-30.0 30.0)
  end
  begin
     id 16
     name head
     direction 0.020792 0.998384 -0.0528868  
     length 1.61527  
     axis 0 0 0   XYZ
    dof rx ry rz
    limits (-20.0 45.0)
           (-30.0 30.0)
           (-30.0 30.0)
  end
  begin
     id 17 
     name lclavicle
     direction 0.967109 0.155462 -0.201325  
     length 3.59357  
     axis 0 0 0   XYZ
    dof ry rz
    limits (-20.0 10.0)
           (0.0 20.0)
  end
  begin
     id 18 
     name lhumerus
     direction 1 -4.48968e-011 2.38195e-027   
     length 5.38154   
     axis 180 -30 -90   XYZ
    dof rx ry rz
    limits (-60.0 90.0)
           (-90.0 90.0)
           (-90.0 90.0)
  end
  begin
     id 19
     name lradius
     direction 1 -4.48961e-011 4.85371e-027   
     length 3.33312   
     axis 180 -30 -90   XYZ
    dof rx
    limits (-10.0 170.0)
  end
  begin
     id 20
     name lwrist
     direction 1 -4.48961e-011 4.76515e-027   
     length 1.66656   
     axis -3.27502e-015 90 90   XYZ
    dof ry
    limits (-180.0 0.0)
 end
  begin
     id 21 
     name lhand
     direction 1 -4.48951e-011 9.53074e-027   
     length 0.710789   
     axis -6.08098e-015 90 90   XYZ
    dof rx rz
    limits (-90.0 90.0)
           (-45.0 45.0)
  end
  begin
     id 22 
     name lfingers
     direction 1 -4.48953e-011 1.90613e-026   
     length 0.573057   
     axis -1.21619e-014 90 90   XYZ
    dof rx
    limits (0.0 90.0)
  end
  begin
     id 23
     name lthumb
     direction 0.707107 -6.34973e-011 0.707107   
     length 0.822798   
     axis -90 45 -9.86923e-015   XYZ
    dof rx rz
    limits (-45.0 45.0)
           (-45.0 45.0)
  end
  begin
     id 24 
     name rclavicle
     direction -0.9585 0.265289 -0.104398   
     length 3.42039  
     axis 0 0 0   XYZ 
    dof ry rz
    limits (-10.0 20.0)
           (-20.0 0.0)
  end
  begin
     id 25 
     name rhumerus
     direction -1 -4.48977e-011 2.21478e-027  
     length 5.16954   
     axis 180 30 90   XYZ
    dof rx ry rz
    limits (-90.0 60.0)
           (-90.0 90.0)
           (-90.0 90.0)
  end
  begin
     id 26 
     name rradius
     direction -1 -4.48967e-011 5.63677e-027   
     length 3.38287   
     axis 180 30 90   XYZ
    dof rx
    limits (-10.0 170.0)
  end
  begin
     id 27 
     name rwrist
     direction -1 -4.48967e-011 4.76501e-027   
     length 1.69144   
     axis -3.27502e-015 -90 -90   XYZ
    dof ry
    limits (-180.0 0.0)
  end
  begin
     id 28
     name rhand
     direction -1 -4.48902e-011 9.53292e-027   
     length 0.817967   
     axis -6.08098e-015 -90 -90   XYZ
    dof rx rz
    limits (-90.0 90.0)
           (-45.0 45.0)
  end
  begin
     id 29
     name rfingers
     direction -1 -4.49012e-011 1.90561e-026   
     length 0.659466   
     axis -1.21619e-014 -90 -90   XYZ
    dof rx
    limits (0.0 90.0)
  end
  begin
     id 30
     name rthumb
     direction -0.707107 -6.34944e-011 0.707107   
     length 0.946865   
     axis -90 -45 9.86923e-015   XYZ
    dof rx rz
    limits (-45.0 45.0)
           (-45.0 45.0)
  end
:hierarchy
  begin
    root lhipjoint rhipjoint lowerback
    lhipjoint lfemur
    lfemur ltibia
    ltibia lfoot
    lfoot ltoes
    rhipjoint rfemur
    rfemur rtibia
    rtibia rfoot
    rfoot rtoes
    lowerback upperback
    upperback thorax
    thorax lowerneck lclavicle rclavicle
    lowerneck upperneck
    upperneck head
    lclavicle lhumerus
    lhumerus lradius
    lradius lwrist
    lwrist lhand lthumb
    lhand lfingers
    rclavicle rhumerus
    rhumerus rradius
    rradius rwrist
    rwrist rhand rthumb
    rhand rfingers
  end

#!OML:ASF F:\twosubjects\two\wednesday\Session 1\Justin1.ASF
:FULLY-SPECIFIED
:DEGREES
129
root 15.6406 17.6567 6.04652 -174.102 10.4539 -173.987
lowerback -0.203691 0.554354 3.80598
upperback 3.36645 0.81143 3.4832
thorax 3.58155 0.570145 1.49399
lowerneck -11.6939 -1.06709 -9.75866
upperneck 35.0669 6.46678 -3.3485
head 13.9239 2.39074 1.64697
rclavicle -6.4605e-015 -3.69739e-014
rhumerus -7.20294 1.90698 -81.8196
rradius 41.0649
rwrist -16.4816
rhand -14.4949 21.1119
rfingers 7.12502
rthumb 11.6519 -8.54411
lclavicle -6.4605e-015 -3.69739e-014
lhumerus -54.0646 -48.0912 95.0453
lradius 52.5829
lwrist -0.559431
lhand -2.91508 33.4171
lfingers 7.12502
lthumb 22.7955 62.0902
rfemur 14.1564 7.98072 28.4267
rtibia 14.9343
rfoot -9.98204 1.52994
rtoes -5.85219
lfemur -32.049 1.87691 -12.2139
ltibia 27.2128
lfoot -0.978315 4.35911
ltoes -15.1188
130
root 15.6279 17.67 5.86115 -174.344 10.6901 -174.548
lowerback -0.26645 0.369701 2.90585
upperback 3.66138 0.575033 3.63652
thorax 3.91169 0.430457 2.15485
lowerneck -12.282 -0.955479 -10.617
upperneck 35.2151 6.88603 -3.1379
head 14.0912 2.45437 1.95287
rclavicle -1.43125e-014 3.89618e-014
rhumerus -6.62482 2.56597 -81.5993
rradius 41.0276
rwrist -16.2409
rhand -14.0234 21.6107
rfingers 7.12502
rthumb 12.1066 -8.01907
lclavicle -1.43125e-014 3.89618e-014
lhumerus -53.0963 -47.0048 94.5474
lradius 52.128
lwrist -0.837714
lhand -4.49024 32.8508
lfingers 7.12502
lthumb 21.2831 61.7022
rfemur 13.1948 8.05353 27.7361
rtibia 18.0845
rfoot -9.42166 1.33488
rtoes -7.38767
lfemur -31.3986 2.24514 -13.0558
ltibia 27.4613
lfoot -0.362249 3.5824
ltoes -13.0403
131
root 15.6103 17.6803 5.67152 -174.558 10.7003 -174.839
lowerback -0.293608 0.25503 2.57913
upperback 3.81944 0.424711 3.62285
thorax 4.09155 0.347196 2.32165
lowerneck -12.4706 -0.912529 -11.12
upperneck 35.3581 7.01399 -2.79262
head 14.166 2.47423 2.20227
rclavicle 1.23246e-014 -2.14687e-014
rhumerus -6.54635 2.81761 -81.6426
rradius 41.2309
rwrist -16.487
rhand -14.3167 21.5937
rfingers 7.12502
rthumb 11.8237 -8.05247
lclavicle 1.23246e-014 -2.14687e-014
lhumerus -52.7336 -46.7871 94.4088
lradius 51.7153
lwrist -0.658255
lhand -2.68975 33.5188
lfingers 7.12502
lthumb 23.0117 62.1651
rfemur 12.1999 7.70275 27.2259
rtibia 21.2585
rfoot -8.38599 1.36111
rtoes -7.24235
lfemur -30.7619 2.50729 -13.6503
ltibia 27.7567
lfoot -0.236264 2.86693
ltoes -11.0083
132
root 15.5805 17.6897 5.47848 -174.723 10.5863 -175.202
lowerback -0.436087 0.226349 2.41269
upperback 3.90715 0.375614 3.46134
thorax 4.26443 0.316419 2.24859
lowerneck -12.3357 -0.982066 -11.3927
upperneck 35.3829 6.84748 -2.47537
head 14.1294 2.41039 2.34717
rclavicle 2.48481e-015 -4.85035e-014
rhumerus -6.6735 2.39505 -81.8639
rradius 41.4267
rwrist -16.3193
rhand -15.099 21.1977
rfingers 7.12502
rthumb 11.0693 -8.49036
lclavicle 2.48481e-015 -4.85035e-014
lhumerus -52.6342 -46.8422 94.3514
lradius 51.4349
lwrist -0.510532
lhand -1.98651 33.5547
lfingers 7.12502
lthumb 23.6863 62.1153
rfemur 11.1399 7.20754 26.549
rtibia 24.348
rfoot -7.0215 1.52181
rtoes -6.02998
lfemur -30.2873 2.70829 -14.3648
ltibia 28.2016
lfoot -0.278786 2.2719
ltoes -10.5891
133
root 15.5414 17.7005 5.28257 -174.834 10.5453 -175.248
lowerback -0.607598 0.235619 2.61438
upperback 3.92282 0.372754 3.39184
thorax 4.38006 0.322645 2.06587
lowerneck -11.9747 -1.05097 -11.4445
upperneck 35.4137 6.71983 -2.39718
head 14.0646 2.38059 2.36276
rclavicle 1.69961e-014 4.37326e-014
rhumerus -7.11706 2.12834 -82.006
rradius 41.6652
rwrist -16.0871
rhand -15.1051 21.3806
rfingers 7.12502
rthumb 11.0634 -8.30777
lclavicle 1.69961e-014 4.37326e-014
lhumerus -52.734 -46.7635 94.4396
lradius 51.0982
lwrist -0.574509
lhand -1.64461 33.8268
lfingers 7.12502
lthumb 24.0142 62.3446
rfemur 10.0629 6.74357 26.1257
rtibia 27.2843
rfoot -5.32648 1.66301
rtoes -4.7403
lfemur -29.8348 3.07674 -14.7926
ltibia 28.8191
lfoot -0.592426 1.63504
ltoes -13.7363
134
root 15.5074 17.7109 5.09216 -175.049 10.6676 -175.074
lowerback -0.563889 0.26668 2.98614
upperback 3.94844 0.410887 3.35425
thorax 4.38452 0.357945 1.82055
lowerneck -11.6695 -1.04488 -11.2319
upperneck 35.5761 6.76245 -2.4911
head 14.0797 2.43743 2.29777
rclavicle -6.85807e-015 -1.39149e-014
rhumerus -7.60633 1.95073 -82.1859
rradius 41.8803
rwrist -16.0563
rhand -14.9551 21.3251
rfingers 7.12502
rthumb 11.208 -8.35549
lclavicle -6.85807e-015 -1.39149e-014
lhumerus -52.9625 -46.4981 94.4087
lradius 51.0871
lwrist -0.846447
lhand -5.37087 33.4208
lfingers 7.12502
lthumb 20.437 62.3652
rfemur 9.0163 6.49519 25.9537
rtibia 30.1781
rfoot -3.09028 1.4925
rtoes -1.77071
lfemur -29.1715 3.59054 -14.9401
ltibia 29.4168
lfoot -1.24711 1.05068
ltoes -14.6352
135
root 15.4766 17.7243 4.9094 -175.19 10.752 -175.286
lowerback -0.633012 0.308515 3.00704
upperback 3.99809 0.457925 3.19359
thorax 4.47641 0.382466 1.64595
lowerneck -11.524 -1.08517 -11.2022
upperneck 35.7809 6.72621 -2.39707
head 14.1389 2.44681 2.33116
rclavicle 1.09332e-015 -8.34896e-015
rhumerus -7.61766 1.08838 -82.4407
rradius 41.6273
rwrist -15.7904
rhand -14.8174 21.0566
rfingers 7.12502
rthumb 11.3408 -8.61675
lclavicle 1.09332e-015 -8.34896e-015
lhumerus -53.0564 -46.2279 94.1096
lradius 51.4429
lwrist -1.05349
lhand -2.17941 34.4793
lfingers 7.12502
lthumb 23.5013 63.0637
rfemur 7.68749 6.31746 25.3913
rtibia 33.064
rfoot -0.28963 0.947145
rtoes 2.38143
lfemur -28.5811 4.0294 -15.4909
ltibia 29.8204
lfoot -2.05725 0.43981
ltoes -15.1435
136
root 15.442 17.7456 4.72881 -175.327 10.8005 -175.778
lowerback -0.755344 0.36589 2.81056
upperback 4.07098 0.525556 2.94372
thorax 4.62152 0.408434 1.50252
lowerneck -11.449 -1.1915 -11.3828
upperneck 35.9243 6.53023 -2.09577
head 14.1763 2.37631 2.45766
rclavicle 1.88845e-015 -1.82882e-014
rhumerus -7.5518 0.0827928 -82.6648
rradius 41.2398
rwrist -15.5833
rhand -14.1885 21.3092
rfingers 7.12502
rthumb 11.9474 -8.3299
lclavicle 1.88845e-015 -1.82882e-014
lhumerus -52.8815 -46.1866 93.7766
lradius 51.4284
lwrist -1.06321
lhand -1.13568 34.7676
lfingers 7.12502
lthumb 24.5022 63.2202
rfemur 6.21953 6.05327 24.4975
rtibia 35.8815
rfoot 2.80847 0.596694
rtoes 4.33754
lfemur -27.9316 4.25237 -16.3359
ltibia 29.9845
lfoot -2.76911 0.116643
ltoes -16.4893
137
root 15.4113 17.7681 4.54854 -175.711 11.1002 -176.416
lowerback -0.710253 0.46419 2.3012
upperback 4.2155 0.669247 2.69482
thorax 4.74205 0.462067 1.53791
lowerneck -11.4831 -1.19657 -11.1957
upperneck 36.1626 6.53143 -2.03138
head 14.2921 2.40747 2.46352
rclavicle -9.34288e-015 -3.06128e-014
rhumerus -7.54233 -0.604274 -82.888
rradius 40.8831
rwrist -15.4616
rhand -13.861 21.5622
rfingers 7.12502
rthumb 12.2631 -8.05823
lclavicle -9.34288e-015 -3.06128e-014
lhumerus -52.5867 -46.2385 93.5997
lradius 50.8987
lwrist -0.979359
lhand -2.18107 34.5195
lfingers 7.12502
lthumb 23.4997 63.1042
rfemur 4.94848 5.99031 23.4449
rtibia 38.6132
rfoot 5.80534 0.611234
rtoes 4.75508
lfemur -26.8439 4.30008 -17.2233
ltibia 29.9131
lfoot -3.36895 0.395407
ltoes -15.088
